<svg xmlns="http://www.w3.org/2000/svg" width="24" height="24" viewBox="0 0 24 24"><defs><style>.a{fill:#a40c0a;}</style></defs><g transform="translate(0 0)"><path class="a" d="M12,24A12.047,12.047,0,0,1,0,11.965,11.918,11.918,0,0,1,3.512,3.512,12,12,0,0,1,24,12.035a11.918,11.918,0,0,1-3.512,8.488A12.059,12.059,0,0,1,12,24ZM12,1.756A10.279,10.279,0,0,0,4.753,19.317,10.3,10.3,0,0,0,19.247,4.683,10.373,10.373,0,0,0,12,1.756Z" transform="translate(0 0)"/><path class="a" d="M10.31,12.16a.82.82,0,0,1-.86-.85V5.44a.86.86,0,1,1,1.71,0v5.87a.81.81,0,0,1-.85.85Z" transform="translate(1.76 1.224)"/><path class="a" d="M10.31,15.39a1,1,0,1,1,1-1A1,1,0,0,1,10.31,15.39Z" transform="translate(1.761 2.533)"/></g></svg>