<svg xmlns="http://www.w3.org/2000/svg" width="23.998" height="23.999" viewBox="0 0 23.998 23.999"><defs><style>.a{fill:#095797;}</style></defs><g transform="translate(0 0)"><path class="a" d="M11.929,24A12,12,0,1,1,24,11.964a11.835,11.835,0,0,1-2.341,7.024l.843,3.02a1.018,1.018,0,0,1-.176.878,1.054,1.054,0,0,1-1.089.375l-3.278-.925A11.4,11.4,0,0,1,11.929,24Zm.14-22.043a10.044,10.044,0,1,0-.14,20.088,9.459,9.459,0,0,0,5.139-1.463l.62-.4,2.529.714-.656-2.341.48-.656A9.962,9.962,0,0,0,12.069,1.955Z" transform="translate(0 0)"/><path class="a" d="M10.421,17.12A1.1,1.1,0,0,1,9.25,15.949V9.1a1.171,1.171,0,1,1,2.341,0v6.872a1.1,1.1,0,0,1-1.171,1.147Z" transform="translate(1.578 1.353)"/><path class="a" d="M10.443,7.386a1.323,1.323,0,1,1,1.323-1.323A1.323,1.323,0,0,1,10.443,7.386Z" transform="translate(1.556 0.809)"/></g></svg>