<svg xmlns="http://www.w3.org/2000/svg" width="24" height="24" viewBox="0 0 24 24"><defs><style>.a{fill:#cb381f;}</style></defs><g transform="translate(0 0)"><path class="a" d="M12,24A12.047,12.047,0,0,1,0,11.965,11.918,11.918,0,0,1,3.512,3.512,12,12,0,0,1,24,12.035a11.918,11.918,0,0,1-3.512,8.488A12.058,12.058,0,0,1,12,24ZM12,1.756A10.279,10.279,0,0,0,4.753,19.317,10.3,10.3,0,0,0,19.247,4.683,10.373,10.373,0,0,0,12,1.756Z" transform="translate(0 0)"/><path class="a" d="M15.1,15.967a.879.879,0,0,1-.621-.258L6.271,7.5A.879.879,0,1,1,7.514,6.283l8.207,8.207a.879.879,0,0,1-.621,1.5Z" transform="translate(1.004 1.004)"/><path class="a" d="M6.879,15.959a.879.879,0,0,1-.621-1.5l8.207-8.207a.879.879,0,1,1,1.243,1.243L7.5,15.7A.879.879,0,0,1,6.879,15.959Z" transform="translate(1.017 1.012)"/></g></svg>