<svg xmlns="http://www.w3.org/2000/svg" viewBox="0 0 16 16"><defs><style>.cls-1{fill:#095797;}.cls-2{isolation:isolate;}.cls-3{fill:#fff;}</style></defs><g id="Calque_2" data-name="Calque 2"><g id="Calque_1-2" data-name="Calque 1"><g id="petit_I" data-name="petit I"><circle id="Ellipse_3" data-name="Ellipse 3" class="cls-1" cx="8" cy="8" r="8"/><g id="i" class="cls-2"><g class="cls-2"><path class="cls-3" d="M6.48,13v-.79l.86-.11V7.59l-.8-.25V6.46L8.7,6.17h0l.43.26V12.1l.85.11V13ZM8,5.18a.87.87,0,0,1-.37-.07,1.05,1.05,0,0,1-.27-.2,1.08,1.08,0,0,1-.16-.3,1.15,1.15,0,0,1-.06-.37,1.21,1.21,0,0,1,.07-.43.85.85,0,0,1,.19-.35.84.84,0,0,1,.31-.25,1.25,1.25,0,0,1,.45-.08h0a.93.93,0,0,1,.42.08.86.86,0,0,1,.29.21,1,1,0,0,1,.17.3,1,1,0,0,1,.05.36,1.49,1.49,0,0,1-.06.43.94.94,0,0,1-.54.59A1.2,1.2,0,0,1,8,5.18Z"/></g></g></g></g></g></svg>