<?xml version="1.0" encoding="utf-8"?>
<!-- Generator: Adobe Illustrator 24.2.3, SVG Export Plug-In . SVG Version: 6.00 Build 0)  -->
<svg version="1.1" id="Calque_1" xmlns="http://www.w3.org/2000/svg" xmlns:xlink="http://www.w3.org/1999/xlink" x="0px" y="0px"
	 viewBox="0 0 24 24" style="enable-background:new 0 0 24 24;" xml:space="preserve">
<style type="text/css">
	.st0{fill:#23803C;}
</style>
<g id="YES" transform="translate(0 0.01)">
	<g id="Calque_1_2_" transform="translate(0 -0.01)">
		<g id="Calque_2_1_">
			<g id="Calque_1-2">
				<path id="Tracé_199" class="st0" d="M12,24C5.4,24,0,18.6,0,12C0,5.4,5.4,0,12,0s12,5.4,12,12c0,3.2-1.3,6.2-3.5,8.5
					C18.2,22.7,15.2,24,12,24z M12,1.8C6.3,1.8,1.7,6.4,1.7,12c0,2.7,1.1,5.4,3,7.3c4.1,4,10.6,3.9,14.6-0.2c0.9-0.9,1.6-2,2.1-3.2
					c1.6-3.8,0.7-8.3-2.2-11.2C17.3,2.8,14.7,1.8,12,1.8z M10.8,16.4c-0.1,0-0.2,0-0.3,0l-0.2-0.1l-0.1-0.1l-0.1-0.1l-3.8-3.7
					c-0.3-0.4-0.2-0.9,0.1-1.2c0.3-0.3,0.8-0.3,1.1,0l3.1,3.1l5.5-6.3c0.3-0.4,0.8-0.5,1.2-0.2l0,0c0.3,0.3,0.4,0.9,0.1,1.2
					l-6.3,7.2l0,0C11.2,16.3,11,16.4,10.8,16.4z"/>
			</g>
		</g>
	</g>
</g>
</svg>
