<svg xmlns="http://www.w3.org/2000/svg" width="24" height="24" viewBox="0 0 24 24"><defs><style>.a{fill:#23803c;}</style></defs><g transform="translate(0 0.01)"><g transform="translate(0 -0.01)"><path class="a" d="M12,23.99A12.047,12.047,0,0,1,0,12a12,12,0,1,1,24,0,11.883,11.883,0,0,1-3.51,8.477A12.092,12.092,0,0,1,12,23.99ZM12,1.759A10.275,10.275,0,0,0,4.75,19.312a10.342,10.342,0,0,0,16.744-3.436,10.273,10.273,0,0,0-2.244-11.2A10.382,10.382,0,0,0,12,1.759ZM10.83,16.383a.71.71,0,0,1-.29,0h-.27v-.14l-.07-.06L6.44,12.435A.88.88,0,0,1,7.68,11.2l3.07,3.059,5.53-6.317a.89.89,0,0,1,1.24-.17h0a1,1,0,0,1,.11,1.239l-6.3,7.157h0A.6.6,0,0,1,10.83,16.383Z" transform="translate(0 0.01)"/></g></g></svg>